<svg xmlns="http://www.w3.org/2000/svg" viewBox="0 0 300 200" width="300" height="200">
  <rect width="300" height="200" fill="#1b2a4a"/>
  <!-- Attractor basin (vector field feel) -->
  <!-- Spiraling flow lines toward center -->
  <path d="M40,40 C60,35 85,40 100,55 C115,70 118,90 110,105 C102,120 85,128 70,125 C55,122 48,108 52,95 C56,82 70,75 82,78 C94,81 100,92 97,102 C94,112 84,118 76,115"
        fill="none" stroke="#d4a843" stroke-width="1.5" opacity="0.6"/>
  <path d="M260,40 C240,38 215,45 200,58 C185,71 180,92 188,108 C196,124 215,130 230,126 C245,122 252,106 248,92 C244,78 230,72 218,76 C206,80 200,92 204,104"
        fill="none" stroke="#6b8cae" stroke-width="1.5" opacity="0.6"/>
  <path d="M50,170 C65,168 85,158 100,145 C115,132 122,112 118,96 C114,80 100,72 88,76 C76,80 72,94 78,106 C84,118 98,122 108,116"
        fill="none" stroke="#d4a843" stroke-width="1.2" opacity="0.5"/>
  <path d="M250,170 C235,165 215,155 200,142 C185,129 178,112 182,96 C186,80 200,72 212,76 C224,80 228,94 222,106 C216,118 202,122 192,116"
        fill="none" stroke="#6b8cae" stroke-width="1.2" opacity="0.5"/>
  <path d="M150,20 C155,35 158,55 155,72 C152,89 146,98 150,100"
        fill="none" stroke="#ffffff" stroke-width="1" opacity="0.4"/>
  <path d="M150,185 C148,170 146,152 148,135 C150,118 152,108 150,104"
        fill="none" stroke="#ffffff" stroke-width="1" opacity="0.4"/>
  <!-- Flow arrows (small) -->
  <g fill="#d4a843" opacity="0.5">
    <polygon points="100,55 96,50 92,56"/>
    <polygon points="76,115 80,120 82,114"/>
  </g>
  <g fill="#6b8cae" opacity="0.5">
    <polygon points="200,58 204,52 196,50"/>
    <polygon points="204,104 200,110 208,108"/>
  </g>
  <!-- Fixed point attractor at center -->
  <circle cx="150" cy="100" r="22" fill="#d4a843" opacity="0.05"/>
  <circle cx="150" cy="100" r="15" fill="#d4a843" opacity="0.08"/>
  <circle cx="150" cy="100" r="9" fill="#d4a843" opacity="0.12"/>
  <circle cx="150" cy="100" r="5" fill="#d4a843"/>
  <circle cx="150" cy="100" r="2" fill="#ffffff"/>
  <!-- Starting points -->
  <circle cx="40" cy="40" r="3" fill="#d4a843" opacity="0.5"/>
  <circle cx="260" cy="40" r="3" fill="#6b8cae" opacity="0.5"/>
  <circle cx="50" cy="170" r="3" fill="#d4a843" opacity="0.4"/>
  <circle cx="250" cy="170" r="3" fill="#6b8cae" opacity="0.4"/>
  <circle cx="150" cy="20" r="2.5" fill="#ffffff" opacity="0.4"/>
  <circle cx="150" cy="185" r="2.5" fill="#ffffff" opacity="0.4"/>
</svg>