<svg xmlns="http://www.w3.org/2000/svg" viewBox="0 0 300 200" width="300" height="200">
  <defs>
    <marker id="arr1" markerWidth="7" markerHeight="5" refX="7" refY="2.5" orient="auto">
      <path d="M0,0 L7,2.5 L0,5" fill="#d4a843"/>
    </marker>
  </defs>
  <rect width="300" height="200" fill="#1b2a4a"/>
  <!-- Topological loop (highlight) -->
  <ellipse cx="150" cy="100" rx="80" ry="55" fill="none" stroke="#d4a843" stroke-width="2" opacity="0.2" stroke-dasharray="6,3"/>
  <!-- State-action nodes -->
  <!-- Outer loop nodes -->
  <circle cx="150" cy="40" r="8" fill="#1b2a4a" stroke="#d4a843" stroke-width="2"/>
  <circle cx="210" cy="65" r="8" fill="#1b2a4a" stroke="#d4a843" stroke-width="2"/>
  <circle cx="230" cy="115" r="8" fill="#1b2a4a" stroke="#6b8cae" stroke-width="2"/>
  <circle cx="190" cy="155" r="8" fill="#1b2a4a" stroke="#d4a843" stroke-width="2"/>
  <circle cx="110" cy="155" r="8" fill="#1b2a4a" stroke="#6b8cae" stroke-width="2"/>
  <circle cx="70" cy="115" r="8" fill="#1b2a4a" stroke="#d4a843" stroke-width="2"/>
  <circle cx="90" cy="65" r="8" fill="#1b2a4a" stroke="#6b8cae" stroke-width="2"/>
  <!-- Center node -->
  <circle cx="150" cy="100" r="10" fill="#d4a843" opacity="0.3"/>
  <circle cx="150" cy="100" r="6" fill="#d4a843"/>
  <!-- Connections forming loop -->
  <line x1="157" y1="44" x2="203" y2="60" stroke="#d4a843" stroke-width="1.5" marker-end="url(#arr1)"/>
  <line x1="215" y1="72" x2="227" y2="108" stroke="#d4a843" stroke-width="1.5" marker-end="url(#arr1)"/>
  <line x1="225" y1="121" x2="197" y2="149" stroke="#6b8cae" stroke-width="1.5" marker-end="url(#arr1)"/>
  <line x1="183" y1="158" x2="117" y2="158" stroke="#d4a843" stroke-width="1.5" marker-end="url(#arr1)"/>
  <line x1="105" y1="150" x2="76" y2="122" stroke="#6b8cae" stroke-width="1.5" marker-end="url(#arr1)"/>
  <line x1="74" y1="108" x2="86" y2="72" stroke="#d4a843" stroke-width="1.5" marker-end="url(#arr1)"/>
  <line x1="96" y1="60" x2="143" y2="44" stroke="#6b8cae" stroke-width="1.5" marker-end="url(#arr1)"/>
  <!-- Connections to center -->
  <line x1="150" y1="48" x2="150" y2="92" stroke="#ffffff" stroke-width="0.8" opacity="0.3"/>
  <line x1="204" y1="70" x2="156" y2="96" stroke="#ffffff" stroke-width="0.8" opacity="0.3"/>
  <line x1="222" y1="112" x2="158" y2="102" stroke="#ffffff" stroke-width="0.8" opacity="0.3"/>
  <line x1="184" y1="150" x2="156" y2="106" stroke="#ffffff" stroke-width="0.8" opacity="0.3"/>
  <line x1="116" y1="150" x2="144" y2="106" stroke="#ffffff" stroke-width="0.8" opacity="0.3"/>
  <line x1="78" y1="110" x2="142" y2="102" stroke="#ffffff" stroke-width="0.8" opacity="0.3"/>
  <line x1="96" y1="62" x2="143" y2="96" stroke="#ffffff" stroke-width="0.8" opacity="0.3"/>
  <!-- Small inner dots (action nodes) -->
  <circle cx="150" cy="40" r="3" fill="#d4a843"/>
  <circle cx="210" cy="65" r="3" fill="#d4a843"/>
  <circle cx="230" cy="115" r="3" fill="#6b8cae"/>
  <circle cx="190" cy="155" r="3" fill="#d4a843"/>
  <circle cx="110" cy="155" r="3" fill="#6b8cae"/>
  <circle cx="70" cy="115" r="3" fill="#d4a843"/>
  <circle cx="90" cy="65" r="3" fill="#6b8cae"/>
</svg>